<?xml version="1.0" encoding="UTF-8"?>
<svg width="108px" height="22px" viewBox="0 0 108 22" version="1.1" xmlns="http://www.w3.org/2000/svg" xmlns:xlink="http://www.w3.org/1999/xlink">
    <title>img_logo_hcc</title>
    <defs>
        <path d="M102.168094,0 C105.38311,0 108,2.63089655 108,5.86489655 L108,5.86489655 L108,22 L106.057037,22 L106.057037,5.86489655 C106.057037,3.70358621 104.316969,1.95610345 102.168094,1.95610345 L102.168094,1.95610345 L5.83379136,1.95610345 C3.68491663,1.95610345 1.9429629,3.70358621 1.9429629,5.86489655 L1.9429629,5.86489655 L1.9429629,22 L0,22 L0.00188563946,5.86489655 C0.00188563946,2.63089655 2.61689044,0 5.83379136,0 L5.83379136,0 Z M21.4647997,10.1538724 C21.6028285,10.1538724 21.7005046,10.2392172 21.7005046,10.419769 L21.7005046,16.3032517 C21.7005046,16.469769 21.7668791,16.5524586 21.9637399,16.5524586 L24.4995478,16.5524586 C24.6651069,16.5524586 24.7756054,16.469769 24.7756054,16.3032517 L24.7756054,10.419769 C24.7756054,10.2392172 24.8457512,10.1538724 25.0094247,10.1538724 L26.3980096,10.1538724 C26.5488608,10.1538724 26.6465369,10.2392172 26.6465369,10.419769 L26.6465369,19.2998034 C26.6465369,19.5220793 26.5767682,19.7314586 26.4809777,19.9397 L25.538158,21.4872862 C25.4551899,21.6299069 25.3318691,21.7110793 25.1919546,21.7110793 L25.0094247,21.7110793 C24.8457512,21.7110793 24.7756054,21.6143552 24.7756054,21.4611138 L24.7756054,17.5303207 C24.7756054,17.3626655 24.6798149,17.2940103 24.5270781,17.3345966 L21.8645552,18.0879069 C21.7393488,18.1144586 21.5881205,18.1144586 21.4647997,18.1144586 C20.3967735,18.1144586 19.8423955,17.249631 19.8423955,16.5103552 L19.8423955,10.419769 C19.8423955,10.2392172 19.9106556,10.1538724 20.0781004,10.1538724 L21.4647997,10.1538724 Z M97.5787495,6.76534138 C97.7461943,6.76534138 97.8144545,6.87837586 97.8144545,7.03313448 L97.8144545,17.7672379 C97.8144545,17.9182034 97.7461943,17.9747207 97.5787495,17.9747207 L96.1645199,17.9747207 C96.0264911,17.9747207 95.958231,17.9182034 95.958231,17.7532034 L95.958231,17.530169 C95.958231,17.3496172 95.8752629,17.2783069 95.6949957,17.3348241 L93.0192733,18.057031 C92.8661594,18.0995138 92.7409529,18.0995138 92.6044326,18.0995138 C91.8814785,18.1291 90.9952279,17.4599966 90.9952279,16.4995828 L90.9952279,12.9841345 C90.9952279,12.2304448 91.3142781,11.6588241 91.9806631,11.2969621 L93.4480677,10.4317552 C93.7539185,10.2390655 94.0578835,10.1541 94.4187949,10.1541 L95.6949957,10.1541 C95.8752629,10.1541 95.958231,10.0854448 95.958231,9.9158931 L95.958231,7.03313448 C95.958231,6.87837586 96.0264911,6.76534138 96.1645199,6.76534138 L97.5787495,6.76534138 Z M83.524513,10.1541 C83.6753641,10.1541 83.7583323,10.2390655 83.7583323,10.4196172 L83.7583323,17.7672379 C83.7583323,17.9182034 83.6753641,17.9747207 83.524513,17.9747207 L82.1083977,17.9747207 C81.9575466,17.9747207 81.9021088,17.9182034 81.9021088,17.7532034 L81.9021088,17.530169 C81.9021088,17.3496172 81.8044326,17.2783069 81.6241655,17.3348241 L78.9612655,18.057031 C78.8104143,18.0995138 78.6852079,18.0995138 78.5486876,18.0995138 C77.674128,18.0995138 76.9394828,17.3909621 76.9394828,16.4995828 L76.9394828,12.9841345 C76.9394828,12.2304448 77.2596644,11.6588241 77.9098329,11.2969621 L79.3923227,10.4317552 C79.6977962,10.2390655 80.0017613,10.1541 80.3460791,10.1541 L83.524513,10.1541 Z M60.5336653,10.1541 C60.6864021,10.1541 60.7693702,10.2390655 60.7693702,10.4196172 L60.7693702,17.7672379 C60.7693702,17.9182034 60.6864021,17.9747207 60.5336653,17.9747207 L59.1175501,17.9747207 C58.9666989,17.9747207 58.9131467,17.9182034 58.9131467,17.7532034 L58.9131467,17.530169 C58.9131467,17.3496172 58.813585,17.2783069 58.6352035,17.3348241 L55.9741891,18.057031 C55.8214523,18.0995138 55.6962458,18.0995138 55.558217,18.0995138 C54.685166,18.0995138 53.9505208,17.3909621 53.9505208,16.4995828 L53.9505208,12.9841345 C53.9505208,12.2304448 54.2691939,11.6588241 54.9189852,11.2969621 L56.4052463,10.4317552 C56.7069486,10.2390655 57.0109137,10.1541 57.3590027,10.1541 L60.5336653,10.1541 Z M30.1419845,10.1538345 C30.2671909,10.1538345 30.3629814,10.2391793 30.3629814,10.419731 L30.3629814,16.3032138 C30.3629814,16.469731 30.4455724,16.5402828 30.6394162,16.5402828 L33.1767326,16.5402828 C33.3426689,16.5402828 33.4531674,16.469731 33.4531674,16.3032138 L33.4531674,10.419731 C33.4531674,10.2391793 33.508228,10.1538345 33.6737872,10.1538345 L35.0623721,10.1538345 C35.2132232,10.1538345 35.3108993,10.2391793 35.3108993,10.419731 L35.3108993,17.7673517 C35.3108993,17.9179379 35.2132232,17.9748345 35.0623721,17.9748345 L33.6737872,17.9748345 C33.508228,17.9748345 33.4531674,17.9179379 33.4531674,17.7533172 L33.4531674,17.5302828 C33.4531674,17.349731 33.3426689,17.2784207 33.1914406,17.3345586 L30.5289177,18.0571448 C30.3890032,18.0996276 30.2355122,18.0996276 30.0978605,18.0996276 C29.2508313,18.0996276 28.5044952,17.4032138 28.5044952,16.4993172 L28.5044952,10.419731 C28.5044952,10.2391793 28.5727553,10.1538345 28.7402001,10.1538345 L30.1419845,10.1538345 Z M52.1348386,6.76534138 C52.3022834,6.76534138 52.3705435,6.87837586 52.3705435,7.03313448 L52.3705435,17.7672379 C52.3705435,17.9182034 52.3022834,17.9747207 52.1348386,17.9747207 L50.720609,17.9747207 C50.5844658,17.9747207 50.51432,17.9182034 50.51432,17.7532034 L50.51432,17.530169 C50.51432,17.3496172 50.4309748,17.2783069 50.2507076,17.3348241 L47.5749852,18.057031 C47.4241341,18.0995138 47.2989276,18.0995138 47.1590132,18.0995138 C46.4371904,18.1291 45.5532026,17.4599966 45.5532026,16.4995828 L45.5532026,12.9841345 C45.5532026,12.2304448 45.86999,11.6588241 46.536375,11.2969621 L48.0041568,10.4317552 C48.3096304,10.2390655 48.6154811,10.1541 48.9745069,10.1541 L50.2507076,10.1541 C50.4309748,10.1541 50.51432,10.0854448 50.51432,9.9158931 L50.51432,7.03313448 C50.51432,6.87837586 50.5844658,6.76534138 50.720609,6.76534138 L52.1348386,6.76534138 Z M11.4563534,7.7297 C11.6075817,7.7297 11.7071434,7.81201034 11.7071434,7.96676897 L11.7071434,11.7568379 C11.7071434,11.937769 11.8025568,12.0234931 11.9684931,12.0234931 L15.7525943,12.0234931 C15.9313529,12.0234931 16.058445,11.937769 16.058445,11.7568379 L16.058445,7.96676897 C16.058445,7.81201034 16.1135057,7.7297 16.279442,7.7297 L17.7212019,7.7297 C17.8867611,7.7297 17.9863228,7.81201034 17.9863228,7.96676897 L17.9863228,17.7673897 C17.9863228,17.9179759 17.8867611,17.9748724 17.7212019,17.9748724 L16.279442,17.9748724 C16.1135057,17.9748724 16.058445,17.9179759 16.058445,17.7533552 L16.058445,13.8070103 C16.058445,13.6268379 15.9313529,13.5285966 15.7525943,13.5285966 L11.9684931,13.5285966 C11.8025568,13.5285966 11.7071434,13.6268379 11.7071434,13.8070103 L11.7071434,17.7533552 C11.7071434,17.9179759 11.6075817,17.9748724 11.4563534,17.9748724 L9.98706312,17.9748724 C9.84714867,17.9748724 9.79321938,17.9179759 9.79321938,17.7673897 L9.79321938,7.96676897 C9.79321938,7.81201034 9.84714867,7.7297 9.98706312,7.7297 L11.4563534,7.7297 Z M42.3526313,10.0288897 C43.2660351,10.0288897 43.9731499,10.7958552 43.9731499,11.6587862 L43.9731499,17.7672 C43.9731499,17.9181655 43.8735881,17.9746828 43.7246226,17.9746828 L42.3379234,17.9746828 C42.1723642,17.9746828 42.1169264,17.9181655 42.1169264,17.7531655 L42.1169264,11.8700621 C42.1169264,11.6883724 42.0045423,11.590131 41.8389832,11.590131 L39.3031752,11.590131 C39.1082001,11.590131 39.025232,11.6883724 39.025232,11.8700621 L39.025232,17.7531655 C39.025232,17.9181655 38.9256702,17.9746828 38.804235,17.9746828 L37.4009421,17.9746828 C37.2372686,17.9746828 37.1690085,17.9181655 37.1690085,17.7672 L37.1690085,10.4195793 C37.1690085,10.2390276 37.2372686,10.1540621 37.4009421,10.1540621 L38.804235,10.1540621 C38.9256702,10.1540621 39.025232,10.2390276 39.025232,10.4195793 L39.025232,10.6566483 C39.025232,10.8076138 39.093115,10.8800621 39.3031752,10.8235448 L41.9494816,10.0975448 C42.0875104,10.0706138 42.2108313,10.0288897 42.3526313,10.0288897 Z M64.2496573,10.1538724 C64.3858004,10.1538724 64.4853622,10.2392172 64.4853622,10.419769 L64.4853622,17.7673897 C64.4853622,17.9179759 64.3858004,17.9748724 64.2496573,17.9748724 L62.8610724,17.9748724 C62.6808052,17.9748724 62.6253674,17.9179759 62.6253674,17.7673897 L62.6253674,10.419769 C62.6253674,10.2392172 62.6808052,10.1538724 62.8610724,10.1538724 L64.2496573,10.1538724 Z M75.4000845,7.72962414 C75.563758,7.72962414 75.6467261,7.81193448 75.6467261,7.98148621 L75.6467261,8.99727931 C75.6467261,9.15203793 75.563758,9.21955517 75.4000845,9.21955517 L70.5883097,9.21955517 C70.4223735,9.21955517 70.3522277,9.31665862 70.3522277,9.49834828 L70.3522277,16.2204862 C70.3522277,16.4014172 70.4223735,16.4833483 70.5883097,16.4833483 L75.5381133,16.4833483 C75.6908501,16.4833483 75.7885262,16.5523828 75.7885262,16.6946241 C75.7885262,16.845969 75.7168719,16.9722793 75.563758,17.0568655 L74.3742966,17.7229345 C74.0537379,17.9061414 73.7222425,17.9747966 73.3892386,17.9747966 L70.3967288,17.9747966 C69.4094079,17.9747966 68.3707977,17.2643483 68.3707977,15.9686241 L68.3707977,10.6836931 C68.3707977,9.90496897 68.7022931,9.30300345 69.3837632,8.90017586 L71.0042818,7.99248621 C71.296933,7.81193448 71.6431364,7.72962414 71.9618095,7.72962414 L75.4000845,7.72962414 Z M90.4685311,10.0704621 C90.6193823,10.0704621 90.718944,10.1539103 90.718944,10.3067724 L90.718944,11.3809793 C90.718944,11.5198069 90.6193823,11.5903586 90.4685311,11.5903586 L87.7377481,11.5903586 C87.5571038,11.5903586 87.4873351,11.6886 87.4873351,11.8699103 L87.4873351,17.7533931 C87.4873351,17.9180138 87.3768367,17.9749103 87.2384307,17.9749103 L85.8392863,17.9749103 C85.6714643,17.9749103 85.6164037,17.9180138 85.6164037,17.7674276 L85.6164037,10.4198069 C85.6164037,10.2392552 85.6714643,10.1539103 85.8392863,10.1539103 L87.2384307,10.1539103 C87.3768367,10.1539103 87.4873351,10.2392552 87.4873351,10.4198069 L87.4873351,10.6428414 C87.4873351,10.7957034 87.5571038,10.8643586 87.7377481,10.8643586 C87.7781007,10.8643586 87.8335385,10.8643586 87.8885992,10.8381862 L88.6915045,10.3067724 C88.9841557,10.1539103 89.2900065,10.0704621 89.6509179,10.0704621 L90.4685311,10.0704621 Z M50.2382624,11.590169 L47.674547,11.590169 C47.4791948,11.590169 47.4094261,11.6884103 47.4094261,11.8841345 L47.4094261,16.3031 C47.4094261,16.4696172 47.4791948,16.540169 47.674547,16.540169 L50.2382624,16.540169 C50.4309748,16.540169 50.51432,16.4696172 50.51432,16.3031 L50.51432,11.8841345 C50.51432,11.6884103 50.4309748,11.590169 50.2382624,11.590169 Z M58.6352035,11.590169 L56.0699796,11.590169 C55.876513,11.590169 55.8067443,11.6884103 55.8067443,11.8841345 L55.8067443,16.3031 C55.8067443,16.4696172 55.876513,16.540169 56.0699796,16.540169 L58.6352035,16.540169 C58.813585,16.540169 58.9131467,16.4696172 58.9131467,16.3031 L58.9131467,11.8841345 C58.9131467,11.6884103 58.813585,11.590169 58.6352035,11.590169 Z M81.6241655,11.590169 L79.0608272,11.590169 C78.865475,11.590169 78.7957063,11.6884103 78.7957063,11.8841345 L78.7957063,16.3031 C78.7957063,16.4696172 78.865475,16.540169 79.0608272,16.540169 L81.6241655,16.540169 C81.8044326,16.540169 81.9021088,16.4696172 81.9021088,16.3031 L81.9021088,11.8841345 C81.9021088,11.6884103 81.8044326,11.590169 81.6241655,11.590169 Z M95.6802877,11.590169 L93.1165723,11.590169 C92.9234828,11.590169 92.8514514,11.6884103 92.8514514,11.8841345 L92.8514514,16.3031 C92.8514514,16.4696172 92.9234828,16.540169 93.1165723,16.540169 L95.6802877,16.540169 C95.8752629,16.540169 95.958231,16.4696172 95.958231,16.3031 L95.958231,11.8841345 C95.958231,11.6884103 95.8752629,11.590169 95.6802877,11.590169 Z M64.2496573,6.7654931 C64.3858004,6.7654931 64.4853622,6.87852759 64.4853622,7.03328621 L64.4853622,8.17387241 C64.4853622,8.34266552 64.3858004,8.39918276 64.2496573,8.39918276 L62.8610724,8.39918276 C62.6808052,8.39918276 62.6253674,8.34266552 62.6253674,8.17387241 L62.6253674,7.03328621 C62.6253674,6.87852759 62.6808052,6.7654931 62.8610724,6.7654931 L64.2496573,6.7654931 Z" id="path-1"></path>
    </defs>
    <g id="Page-1" stroke="none" stroke-width="1" fill="none" fill-rule="evenodd">
        <g id="Artboard" transform="translate(-100.000000, -394.000000)">
            <g id="-GNB/Top/Home_Minimized" transform="translate(60.000000, 380.000000)">
                <g id="Group" transform="translate(40.000000, 14.000000)">
                    <mask id="mask-2" fill="white">
                        <use xlink:href="#path-1"></use>
                    </mask>
                    <use id="Mask" fill="#000000" xlink:href="#path-1"></use>
                    <g mask="url(#mask-2)" fill="#000000" id="-Color/Primary/Black">
                        <g>
                            <polygon id="sd_m" points="0 0 58.9570313 0 108 0 108 22 0 22"></polygon>
                        </g>
                    </g>
                </g>
            </g>
        </g>
    </g>
</svg>